<svg width="46" height="48" viewBox="0 0 46 48" fill="none" xmlns="http://www.w3.org/2000/svg">
  <path d="M23 1.65059L27.6703 7.78356L28.09 8.33466L28.7534 8.13548L36.1367 5.91895L36.3101 13.6258L36.3257 14.3183L36.9795 14.5471L44.2556 17.0937L39.866 23.4306L39.4715 24L39.866 24.5694L44.2556 30.9063L36.9795 33.4529L36.3257 33.6817L36.3101 34.3742L36.1367 42.0811L28.7534 39.8645L28.09 39.6653L27.6703 40.2164L23 46.3494L18.3297 40.2164L17.91 39.6653L17.2466 39.8645L9.86335 42.0811L9.68985 34.3742L9.67426 33.6817L9.02045 33.4529L1.74445 30.9063L6.13404 24.5694L6.52848 24L6.13404 23.4306L1.74445 17.0937L9.02045 14.5471L9.67426 14.3183L9.68985 13.6258L9.86335 5.91895L17.2466 8.13548L17.91 8.33466L18.3297 7.78356L23 1.65059Z" stroke="black" stroke-width="2"/>
</svg>