<?xml version="1.0" encoding="UTF-8"?>
<!-- Generated by Pixelmator Pro 3.6.5 -->
<svg width="64" height="64" viewBox="0 0 64 64" xmlns="http://www.w3.org/2000/svg">
    <g id="text8041-9-0">
        <path id="path1065" fill="#000000" stroke="#ffffff" stroke-width="3.310345" stroke-linecap="round" d="M 58.322201 26.58654 L 48.633549 11.908226 C 47.615654 11.253471 46.587643 10.614559 45.549889 9.991749 L 43.677982 15.831112 L 50.387119 24.990429 L 58.69593 29.340454 C 58.582279 28.421032 58.45771 27.502975 58.322212 26.58654 Z"/>
        <path id="path1073" fill="#000000" stroke="#ffffff" stroke-width="3.310345" stroke-linecap="round" d="M 41.531769 14.873177 L 43.484737 8.780926 C 42.408276 8.164528 41.322056 7.565308 40.226505 6.983521 L 23.773495 6.983521 C 22.677942 7.565308 21.591724 8.164528 20.515261 8.780926 L 22.468227 14.873177 Z"/>
        <path id="path1087" fill="#000000" stroke="#ffffff" stroke-width="3.310345" stroke-linecap="round" d="M 18.450115 9.991749 C 17.412361 10.614559 16.38435 11.253471 15.366455 11.908226 L 5.677795 26.58654 C 5.542304 27.502975 5.417721 28.421032 5.304068 29.340454 L 13.612878 24.990429 L 20.322021 15.831112 Z"/>
        <path id="path1089" fill="#000000" stroke="#ffffff" stroke-width="3.310345" stroke-linecap="round" d="M 27.951206 41.891926 L 36.048798 41.891926 L 48.14901 25.88842 L 41.791649 17.209354 L 22.208349 17.209354 L 15.85099 25.88842 Z"/>
        <path id="path1093" fill="#000000" stroke="#ffffff" stroke-width="3.310345" stroke-linecap="round" d="M 59.242626 34.821896 C 59.174644 33.927303 59.096359 33.033539 59.007824 32.140755 L 49.939964 27.393311 L 38.132397 43.00975 L 47.233456 53.50737 C 48.343464 52.739746 49.44009 51.952911 50.522827 51.147285 Z"/>
        <path id="path1097" fill="#000000" stroke="#ffffff" stroke-width="3.310345" stroke-linecap="round" d="M 45.284847 54.826111 L 36.096737 44.228104 L 27.903259 44.228104 L 18.715149 54.826111 C 19.847828 55.57618 20.993507 56.3064 22.151665 57.01646 L 41.848324 57.01646 C 43.006481 56.3064 44.152168 55.57618 45.284847 54.826111 Z"/>
        <path id="path1099" fill="#000000" stroke="#ffffff" stroke-width="3.310345" stroke-linecap="round" d="M 14.060032 27.393311 L 4.992161 32.140755 C 4.903604 33.033539 4.825339 33.927303 4.757376 34.821896 L 13.477167 51.147285 C 14.559909 51.952911 15.656526 52.739746 16.766537 53.50737 L 25.867598 43.00975 Z"/>
    </g>
</svg>
