<?xml version="1.0" encoding="UTF-8"?>
<!-- Generated by Pixelmator Pro 3.6.5 -->
<svg width="64" height="64" viewBox="0 0 64 64" xmlns="http://www.w3.org/2000/svg">
    <g id="text8041-9-0">
        <path id="path1065" fill="#000000" stroke="#ffffff" stroke-width="2.129017" stroke-linecap="round" d="M 60.020199 26.237328 L 49.706551 10.612141 C 48.622993 9.91515 47.528664 9.23502 46.423969 8.572033 L 44.431309 14.788086 L 51.573238 24.538254 L 60.418037 29.168892 C 60.297054 28.190159 60.164452 27.212879 60.02021 26.237328 Z"/>
        <path id="path1073" fill="#000000" stroke="#ffffff" stroke-width="2.129017" stroke-linecap="round" d="M 42.146645 13.768353 L 44.225597 7.283104 C 43.079693 6.626942 41.923405 5.989067 40.757183 5.369751 L 23.242815 5.369751 C 22.076591 5.989067 20.920303 6.626942 19.774399 7.283104 L 21.853348 13.768353 Z"/>
        <path id="path1087" fill="#000000" stroke="#ffffff" stroke-width="2.129017" stroke-linecap="round" d="M 17.576035 8.572033 C 16.471336 9.23502 15.377009 9.91515 14.293452 10.612141 L 3.979793 26.237328 C 3.835562 27.212879 3.702942 28.190159 3.581958 29.168892 L 12.426755 24.538254 L 19.568693 14.788086 Z"/>
        <path id="path1089" fill="#000000" stroke="#ffffff" stroke-width="2.129017" stroke-linecap="round" d="M 27.690023 42.530037 L 36.309978 42.530037 L 49.190754 25.494171 L 42.42329 16.255234 L 21.576706 16.255234 L 14.809244 25.494171 Z"/>
        <path id="path1093" fill="#000000" stroke="#ffffff" stroke-width="2.129017" stroke-linecap="round" d="M 61 35.003929 C 60.927631 34.051628 60.844299 33.100212 60.75005 32.149834 L 51.09724 27.096142 L 38.527985 43.719971 L 48.216137 54.894775 C 49.397751 54.077629 50.565121 53.24004 51.717701 52.382442 Z"/>
        <path id="path1097" fill="#000000" stroke="#ffffff" stroke-width="2.129017" stroke-linecap="round" d="M 46.14183 56.298584 L 36.361008 45.016914 L 27.638985 45.016914 L 17.858164 56.298584 C 19.063911 57.097038 20.283497 57.874363 21.516365 58.63023 L 42.48362 58.63023 C 43.716488 57.874363 44.936081 57.097038 46.14183 56.298584 Z"/>
        <path id="path1099" fill="#000000" stroke="#ffffff" stroke-width="2.129017" stroke-linecap="round" d="M 12.902754 27.096142 L 3.24993 32.149834 C 3.155661 33.100212 3.072347 34.051628 3 35.003929 L 12.28229 52.382442 C 13.434877 53.24004 14.602235 54.077629 15.783851 54.894775 L 25.472006 43.719971 Z"/>
    </g>
</svg>
