<?xml version="1.0" encoding="UTF-8" standalone="no"?>
<!-- Generator: Adobe Illustrator 24.0.3, SVG Export Plug-In . SVG Version: 6.00 Build 0)  -->

<svg
   xmlns:dc="http://purl.org/dc/elements/1.1/"
   xmlns:cc="http://creativecommons.org/ns#"
   xmlns:rdf="http://www.w3.org/1999/02/22-rdf-syntax-ns#"
   xmlns:svg="http://www.w3.org/2000/svg"
   xmlns="http://www.w3.org/2000/svg"
   xmlns:sodipodi="http://sodipodi.sourceforge.net/DTD/sodipodi-0.dtd"
   xmlns:inkscape="http://www.inkscape.org/namespaces/inkscape"
   version="1.1"
   id="Layer_1"
   x="0px"
   y="0px"
   viewBox="0 0 64 64"
   style="enable-background:new 0 0 64 64;"
   xml:space="preserve"
   sodipodi:docname="d14black.svg"
   inkscape:version="0.92.4 (5da689c313, 2019-01-14)"><metadata
   id="metadata869"><rdf:RDF><cc:Work
       rdf:about=""><dc:format>image/svg+xml</dc:format><dc:type
         rdf:resource="http://purl.org/dc/dcmitype/StillImage" /><dc:title></dc:title></cc:Work></rdf:RDF></metadata><defs
   id="defs44236"><marker
     style="overflow:visible"
     refY="0.0"
     refX="0.0"
     orient="auto"
     id="DistanceX"><path
       id="path823"
       style="stroke:#000000; stroke-width:0.5"
       d="M 3,-3 L -3,3 M 0,-5 L  0,5" /></marker><pattern
     y="0"
     x="0"
     width="8"
     patternUnits="userSpaceOnUse"
     id="Hatch"
     height="8"><path
       id="path826"
       stroke-width="0.25"
       stroke="#000000"
       linecap="square"
       d="M8 4 l-4,4" /><path
       id="path828"
       stroke-width="0.25"
       stroke="#000000"
       linecap="square"
       d="M6 2 l-4,4" /><path
       id="path830"
       stroke-width="0.25"
       stroke="#000000"
       linecap="square"
       d="M4 0 l-4,4" /></pattern><symbol
     id="*Model_Space" /><symbol
     id="*Paper_Space" /><symbol
     id="*Paper_Space0" /><marker
     style="overflow:visible"
     refY="0.0"
     refX="0.0"
     orient="auto"
     id="DistanceX-9"><path
       id="path1002"
       style="stroke:#000000; stroke-width:0.5"
       d="M 3,-3 L -3,3 M 0,-5 L  0,5" /></marker><pattern
     y="0"
     x="0"
     width="8"
     patternUnits="userSpaceOnUse"
     id="Hatch-5"
     height="8"><path
       id="path1005"
       stroke-width="0.25"
       stroke="#000000"
       linecap="square"
       d="M8 4 l-4,4" /><path
       id="path1007"
       stroke-width="0.25"
       stroke="#000000"
       linecap="square"
       d="M6 2 l-4,4" /><path
       id="path1009"
       stroke-width="0.25"
       stroke="#000000"
       linecap="square"
       d="M4 0 l-4,4" /></pattern><symbol
     id="*Model_Space-5" /><symbol
     id="*Paper_Space-0" /><symbol
     id="*Paper_Space0-3" /></defs><sodipodi:namedview
   id="namedview44234"
   pagecolor="#ffffff"
   bordercolor="#666666"
   borderopacity="1.0"
   inkscape:pageshadow="2"
   inkscape:pageopacity="0.0"
   inkscape:pagecheckerboard="0"
   showgrid="false"
   inkscape:zoom="17.235728"
   inkscape:cx="41.430533"
   inkscape:cy="31.068282"
   inkscape:window-width="1920"
   inkscape:window-height="1017"
   inkscape:window-x="1912"
   inkscape:window-y="-8"
   inkscape:window-maximized="1"
   inkscape:current-layer="text8041-9-0" />
<g
   aria-label="I"
   id="text8041-9-0"
   style="font-size:10.58329964px;line-height:1.25;font-family:'Samyak Tamil';-inkscape-font-specification:'Samyak Tamil';stroke-width:0.37078401"
   transform="matrix(3.7795603,0,0,3.7714103,-15.409119,-285.41643)"><path
     id="path1065"
     style="fill:#ffffff;stroke:#000000;stroke-width:0.00550133;stroke-linecap:round;fill-opacity:1"
     d="M 18.855002,82.863029 16.531889,79.335907 C 16.287822,79.17857 16.041329,79.025045 15.7925,78.875386 l -0.44884,1.403171 1.608695,2.200932 1.992258,1.045288 c -0.02725,-0.220931 -0.05712,-0.441529 -0.08961,-0.661748 z"
     inkscape:connector-curvature="0"
     sodipodi:nodetypes="ccccccc" /><path
     id="path1073"
     style="fill:#ffffff;fill-opacity:1;stroke:#000000;stroke-width:0.00550133;stroke-linecap:round"
     d="m 14.829049,80.048367 0.468276,-1.463931 c -0.258111,-0.148117 -0.51856,-0.292105 -0.781248,-0.431908 h -3.945046 c -0.262688,0.139803 -0.523137,0.283791 -0.781248,0.431908 l 0.468276,1.463931 z"
     inkscape:connector-curvature="0"
     sodipodi:nodetypes="ccccccc" /><path
     id="path1087"
     style="fill:#ffffff;stroke:#000000;stroke-width:0.00550133;stroke-linecap:round;fill-opacity:1"
     d="M 9.2946086,78.875386 C 9.0457798,79.025045 8.799287,79.17857 8.5552195,79.335907 l -2.3231132,3.527122 c -0.032488,0.220219 -0.06236,0.440817 -0.089611,0.661748 l 1.992258,-1.045288 1.6086947,-2.200932 z"
     inkscape:connector-curvature="0"
     sodipodi:nodetypes="ccccccc" /><path
     id="path1089"
     style="fill:#feffff;stroke:#000000;stroke-width:0.00550133;stroke-linecap:round;fill-opacity:1"
     d="m 11.572748,86.540832 1.941613,0 2.901347,-3.84556 -1.524347,-2.085531 h -4.695616 l -1.5243451,2.085531 z"
     inkscape:connector-curvature="0"
     sodipodi:nodetypes="ccccccc" /><path
     id="path1093"
     style="fill:#ffffff;stroke:#000000;stroke-width:0.00550133;stroke-linecap:round;fill-opacity:1"
     d="m 19.075697,84.841943 c -0.0163,-0.214966 -0.03507,-0.429736 -0.0563,-0.644269 l -2.174261,-1.140782 -2.831177,3.752552 2.182221,2.522518 c 0.266154,-0.184458 0.529098,-0.373525 0.788714,-0.567115 z"
     inkscape:connector-curvature="0"
     sodipodi:nodetypes="ccccccc" /><path
     id="path1097"
     style="fill:#ffffff;fill-opacity:1;stroke:#000000;stroke-width:0.00550133;stroke-linecap:round"
     d="m 15.72895,89.648852 -2.203094,-2.546645 h -1.964604 l -2.2030939,2.546645 c 0.2715904,0.180232 0.5462975,0.355701 0.8239959,0.526329 h 4.722798 c 0.277699,-0.170628 0.552407,-0.346097 0.823998,-0.526329 z"
     inkscape:connector-curvature="0"
     sodipodi:nodetypes="ccccccc" /><path
     id="path1099"
     style="fill:#ffffff;stroke:#000000;stroke-width:0.00550133;stroke-linecap:round;fill-opacity:1"
     d="m 8.2419701,83.056892 -2.1742629,1.140782 c -0.021234,0.214533 -0.04,0.429303 -0.056296,0.644269 l 2.0908014,3.922904 c 0.2596158,0.19359 0.5225597,0.382657 0.7887134,0.567115 l 2.1822221,-2.522518 z"
     inkscape:connector-curvature="0"
     sodipodi:nodetypes="ccccccc" /></g>
</svg>