<?xml version="1.0" encoding="UTF-8" standalone="no"?>
<!-- Generator: Adobe Illustrator 24.0.3, SVG Export Plug-In . SVG Version: 6.00 Build 0)  -->

<svg
   xmlns:dc="http://purl.org/dc/elements/1.1/"
   xmlns:cc="http://creativecommons.org/ns#"
   xmlns:rdf="http://www.w3.org/1999/02/22-rdf-syntax-ns#"
   xmlns:svg="http://www.w3.org/2000/svg"
   xmlns="http://www.w3.org/2000/svg"
   xmlns:sodipodi="http://sodipodi.sourceforge.net/DTD/sodipodi-0.dtd"
   xmlns:inkscape="http://www.inkscape.org/namespaces/inkscape"
   version="1.1"
   id="Layer_1"
   x="0px"
   y="0px"
   viewBox="0 0 64 64"
   style="enable-background:new 0 0 64 64;"
   xml:space="preserve"
   sodipodi:docname="d16black.svg"
   inkscape:version="0.92.4 (5da689c313, 2019-01-14)"><metadata
   id="metadata1236"><rdf:RDF><cc:Work
       rdf:about=""><dc:format>image/svg+xml</dc:format><dc:type
         rdf:resource="http://purl.org/dc/dcmitype/StillImage" /></cc:Work></rdf:RDF></metadata><defs
   id="defs19"><marker
     style="overflow:visible"
     refY="0.0"
     refX="0.0"
     orient="auto"
     id="DistanceX"><path
       id="path1783"
       style="stroke:#000000; stroke-width:0.5"
       d="M 3,-3 L -3,3 M 0,-5 L  0,5" /></marker><pattern
     y="0"
     x="0"
     width="8"
     patternUnits="userSpaceOnUse"
     id="Hatch"
     height="8"><path
       id="path1786"
       stroke-width="0.25"
       stroke="#000000"
       linecap="square"
       d="M8 4 l-4,4" /><path
       id="path1788"
       stroke-width="0.25"
       stroke="#000000"
       linecap="square"
       d="M6 2 l-4,4" /><path
       id="path1790"
       stroke-width="0.25"
       stroke="#000000"
       linecap="square"
       d="M4 0 l-4,4" /></pattern><symbol
     id="*Model_Space" /><symbol
     id="*Paper_Space" /><symbol
     id="*Paper_Space0" /><marker
     style="overflow:visible"
     refY="0.0"
     refX="0.0"
     orient="auto"
     id="DistanceX-5"><path
       id="path857"
       style="stroke:#000000; stroke-width:0.5"
       d="M 3,-3 L -3,3 M 0,-5 L  0,5" /></marker><pattern
     y="0"
     x="0"
     width="8"
     patternUnits="userSpaceOnUse"
     id="Hatch-9"
     height="8"><path
       id="path860"
       stroke-width="0.25"
       stroke="#000000"
       linecap="square"
       d="M8 4 l-4,4" /><path
       id="path862"
       stroke-width="0.25"
       stroke="#000000"
       linecap="square"
       d="M6 2 l-4,4" /><path
       id="path864"
       stroke-width="0.25"
       stroke="#000000"
       linecap="square"
       d="M4 0 l-4,4" /></pattern><symbol
     id="*Model_Space-5" /><symbol
     id="*Paper_Space-5" /><symbol
     id="*Paper_Space0-2" /></defs><sodipodi:namedview
   id="namedview17"
   pagecolor="#ffffff"
   bordercolor="#666666"
   borderopacity="1.0"
   inkscape:pageshadow="2"
   inkscape:pageopacity="0.0"
   inkscape:pagecheckerboard="0"
   showgrid="false"
   inkscape:zoom="8.6178639"
   inkscape:cx="21.218834"
   inkscape:cy="28.932753"
   inkscape:window-width="1920"
   inkscape:window-height="1017"
   inkscape:window-x="1912"
   inkscape:window-y="-8"
   inkscape:window-maximized="1"
   inkscape:current-layer="Layer_1" />

<g
   id="g1090"><path
     sodipodi:nodetypes="ccccc"
     inkscape:connector-curvature="0"
     d="M 52.37899,18.070479 C 47.791379,11.711923 40.498753,7.8590897 32.66071,7.6529381 v 8.9712079 l 14.380751,6.379858 z"
     style="fill:#ffffff;fill-opacity:1;stroke:#000000;stroke-width:0.01748129;stroke-linecap:round"
     id="path1850" /><path
     sodipodi:nodetypes="ccccccc"
     inkscape:connector-curvature="0"
     d="M 55.621657,24.200224 C 54.981786,22.437239 54.14656,20.751428 53.131582,19.174288 l -5.300087,4.898917 v 9.870611 l 7.900455,7.093031 c 0.728713,-2.092863 1.177383,-4.272925 1.334335,-6.48346 z"
     style="fill:#ffffff;fill-opacity:1;stroke:#000000;stroke-width:0.01748129;stroke-linecap:round"
     id="path1856" /><path
     sodipodi:nodetypes="ccccccc"
     inkscape:connector-curvature="0"
     d="M 46.510075,33.865213 V 24.213882 L 32,17.77665 17.489926,24.213882 v 9.651331 L 32,42.605075 Z"
     style="fill:#ffffff;fill-opacity:1;stroke:#000000;stroke-width:0.01748129;stroke-linecap:round"
     id="path1862" /><path
     sodipodi:nodetypes="ccccc"
     inkscape:connector-curvature="0"
     d="M 16.958538,23.004004 11.621011,18.070479 C 16.208622,11.711923 23.501248,7.8590897 31.339291,7.6529381 v 8.9712079 z"
     style="fill:#ffffff;fill-opacity:1;stroke:#000000;stroke-width:0.01748129;stroke-linecap:round"
     id="path1866" /><path
     sodipodi:nodetypes="ccccccc"
     inkscape:connector-curvature="0"
     d="M 8.2680506,41.036847 C 7.5393378,38.943984 7.0906681,36.763922 6.933716,34.553387 L 8.3783435,24.200224 C 9.0182144,22.437239 9.853441,20.751428 10.868419,19.174288 l 5.300087,4.898917 v 9.870611 z"
     style="fill:#ffffff;fill-opacity:1;stroke:#000000;stroke-width:0.01748129;stroke-linecap:round"
     id="path1868" /><path
     id="path882"
     style="fill:none;stroke:#000000;stroke-width:0.01748135;stroke-linecap:round"
     d="M 31.339294,7.6527358 A 25.129354,25.129602 0 0 0 11.621039,18.070366"
     inkscape:connector-curvature="0" /><path
     sodipodi:nodetypes="cccccc"
     inkscape:connector-curvature="0"
     d="m 55.228646,42.360948 -8.135615,-7.304233 -14.43232,8.693115 v 6.783871 c 3.660099,0.229205 6.939923,2.338966 8.666195,5.57456 6.299605,-2.518018 11.313474,-7.476192 13.90174,-13.747313 z"
     style="fill:#ffffff;fill-opacity:1;stroke:#000000;stroke-width:0.01748135;stroke-linecap:round"
     id="path942" /><path
     sodipodi:nodetypes="cccccc"
     inkscape:connector-curvature="0"
     d="m 8.7713571,42.360948 8.1356179,-7.304233 14.432319,8.693115 v 6.783871 C 27.679195,50.762907 24.399367,52.872668 22.6731,56.108261 16.373495,53.590243 11.359623,48.63207 8.7713571,42.360948 Z"
     style="fill:#ffffff;fill-opacity:1;stroke:#000000;stroke-width:0.01748135;stroke-linecap:round"
     id="path944" /><path
     sodipodi:nodetypes="ccc"
     inkscape:connector-curvature="0"
     d="m 24.055166,56.347268 h 15.889672 c -3.587691,-6.017072 -12.301981,-6.017072 -15.889672,0 z"
     style="fill:#ffffff;fill-opacity:1;stroke:#000000;stroke-width:0.01748135;stroke-linecap:round"
     id="path946" /></g></svg>