<?xml version="1.0" encoding="UTF-8"?>
<!-- Generated by Pixelmator Pro 3.6.5 -->
<svg width="55" height="54" viewBox="0 0 55 54" xmlns="http://www.w3.org/2000/svg">
    <g id="g1090">
        <path id="path1850" fill="#000000" stroke="#ffffff" stroke-width="2" stroke-linecap="round" d="M 48.37899 13.07048 C 43.791378 6.711922 36.498753 2.859089 28.660709 2.652939 L 28.660709 11.624146 L 43.041462 18.004005 Z"/>
        <path id="path1856" fill="#000000" stroke="#ffffff" stroke-width="2" stroke-linecap="round" d="M 51.621658 19.200226 C 50.981785 17.437241 50.146561 15.751427 49.13158 14.174286 L 43.831493 19.073204 L 43.831493 28.943817 L 51.731949 36.036846 C 52.460663 33.943985 52.909332 31.763924 53.066284 29.553387 Z"/>
        <path id="path1862" fill="#000000" stroke="#ffffff" stroke-width="2" stroke-linecap="round" d="M 42.510075 28.865211 L 42.510075 19.213882 L 28 12.776649 L 13.489925 19.213882 L 13.489925 28.865211 L 28 37.605076 Z"/>
        <path id="path1866" fill="#000000" stroke="#ffffff" stroke-width="2" stroke-linecap="round" d="M 12.958538 18.004005 L 7.621011 13.07048 C 12.208622 6.711922 19.501247 2.859089 27.339291 2.652939 L 27.339291 11.624146 Z"/>
        <path id="path1868" fill="#000000" stroke="#ffffff" stroke-width="2" stroke-linecap="round" d="M 4.26805 36.036846 C 3.539338 33.943985 3.090668 31.763924 2.933716 29.553387 L 4.378344 19.200226 C 5.018214 17.437241 5.853441 15.751427 6.868419 14.174286 L 12.168507 19.073204 L 12.168507 28.943817 Z"/>
        <path id="path882" fill="#000000" stroke="#ffffff" stroke-width="2" stroke-linecap="round" d="M 27.339294 2.652737 C 19.501261 2.858887 12.208643 6.711754 7.621039 13.070366"/>
        <path id="path942" fill="#000000" stroke="#ffffff" stroke-width="2" stroke-linecap="round" d="M 51.228645 37.360947 L 43.093033 30.056713 L 28.660709 38.749828 L 28.660709 45.533703 C 32.320808 45.762905 35.600636 47.872665 37.326904 51.108261 C 43.626511 48.590244 48.640381 43.632069 51.228645 37.360947 Z"/>
        <path id="path944" fill="#000000" stroke="#ffffff" stroke-width="2" stroke-linecap="round" d="M 4.771358 37.360947 L 12.906975 30.056713 L 27.339294 38.749828 L 27.339294 45.533703 C 23.679195 45.762905 20.399366 47.872669 18.6731 51.108261 C 12.373495 48.590244 7.359623 43.632069 4.771358 37.360947 Z"/>
        <path id="path946" fill="#000000" stroke="#ffffff" stroke-width="2" stroke-linecap="round" d="M 20.055166 51.347267 L 35.944839 51.347267 C 32.357147 45.330196 23.642857 45.330196 20.055166 51.347267 Z"/>
    </g>
</svg>
