<?xml version="1.0" encoding="UTF-8"?>
<!-- Generated by Pixelmator Pro 3.6.5 -->
<svg width="64" height="64" viewBox="0 0 64 64" xmlns="http://www.w3.org/2000/svg">
    <g id="g1847">
        <path id="path939" fill="#000000" stroke="#ffffff" stroke-width="2" stroke-linecap="round" d="M 51.663208 36.190102 L 58.109238 24.039692 L 60.843651 31.873428 L 54.738422 49.957279 Z"/>
        <path id="path947" fill="#000000" stroke="#ffffff" stroke-width="2" stroke-linecap="round" d="M 32.779144 60.631584 L 32.779144 48.482773 L 50.321571 37.331951 L 53.529686 51.694084 Z"/>
        <path id="path955" fill="#000000" stroke="#ffffff" stroke-width="2" stroke-linecap="round" d="M 10.470316 51.694084 L 13.678428 37.331951 L 31.220856 48.482773 L 31.220856 60.631584 Z"/>
        <path id="path957" fill="#000000" stroke="#ffffff" stroke-width="2" stroke-linecap="round" d="M 12.336794 36.190102 L 5.890765 24.039692 L 3.156348 31.873428 L 9.26158 49.957279 Z"/>
        <path id="path967" fill="#000000" stroke="#ffffff" stroke-width="2" stroke-linecap="round" d="M 15.095916 7.081741 L 6.69173 22.224419 L 13.289402 34.660667 L 30.714422 12.658089 Z"/>
        <path id="path971" fill="#000000" stroke="#ffffff" stroke-width="2" stroke-linecap="round" d="M 32 3.363228 L 16.969507 6.096046 L 32 11.462456 L 47.030495 6.096046 Z"/>
        <path id="path975" fill="#000000" stroke="#ffffff" stroke-width="2" stroke-linecap="round" d="M 48.904083 7.081741 L 33.28558 12.658089 L 50.710602 34.660667 L 57.30827 22.224419 Z"/>
        <path id="path1627" fill="#000000" stroke="#ffffff" stroke-width="2" stroke-linecap="round" d="M 14.306991 35.820305 L 32 13.867889 L 49.693008 35.820305 L 32 46.871246 Z"/>
    </g>
</svg>
