<?xml version="1.0" encoding="UTF-8"?>
<!-- Generated by Pixelmator Pro 3.6.5 -->
<svg width="64" height="64" viewBox="0 0 64 64" xmlns="http://www.w3.org/2000/svg">
    <g id="Group">
        <path id="path5796" fill="#000000" stroke="#ffffff" stroke-width="2.001863" stroke-linecap="round" d="M 16.050892 5.450436 L 32.078426 2.401798 L 48.105968 5.450436 L 32.078426 9.106133 L 16.050892 5.450436"/>
        <path id="path5804" fill="#000000" stroke="#ffffff" stroke-width="2.001863" stroke-linecap="round" d="M 59.171734 22.113365 L 51.219662 7.706608 L 52.734322 24.15395 L 61.15686 38.306004 Z"/>
        <path id="path5812" fill="#000000" stroke="#ffffff" stroke-width="2.001863" stroke-linecap="round" d="M 49.434895 6.893757 L 32.929783 10.658382 L 32.929783 29.663761 L 50.993969 23.823387 Z"/>
        <path id="path5822" fill="#000000" stroke="#ffffff" stroke-width="2.001863" stroke-linecap="round" d="M 4.985126 22.113365 L 12.937198 7.706608 L 11.422539 24.15395 L 3 38.306004 Z"/>
        <path id="path5824" fill="#000000" stroke="#ffffff" stroke-width="2.001863" stroke-linecap="round" d="M 13.162889 23.823387 L 14.721962 6.893757 L 31.227077 10.658382 L 31.227077 29.663761 Z"/>
        <path id="path5832" fill="#000000" stroke="#ffffff" stroke-width="2.001863" stroke-linecap="round" d="M 30.697714 31.282097 L 12.636914 25.442814 L 3.970541 40.00457 L 19.465273 46.68314 Z"/>
        <path id="path5838" fill="#000000" stroke="#ffffff" stroke-width="2.001863" stroke-linecap="round" d="M 15.351258 53.93618 L 4.186171 41.951645 L 19.240511 48.440395 L 30.155109 60.802982 Z"/>
        <path id="path5844" fill="#000000" stroke="#ffffff" stroke-width="2.001863" stroke-linecap="round" d="M 33.459141 31.282097 L 51.519947 25.442814 L 60.186317 40.00457 L 44.691586 46.68314 Z"/>
        <path id="path5848" fill="#000000" stroke="#ffffff" stroke-width="2.001863" stroke-linecap="round" d="M 32.078426 60.408783 L 20.843351 47.683201 L 32.078426 32.278542 L 43.313511 47.683201 Z"/>
        <path id="path5850" fill="#000000" stroke="#ffffff" stroke-width="2.001863" stroke-linecap="round" d="M 59.970688 41.951645 L 44.916351 48.440395 L 34.001747 60.802982 L 48.805603 53.93618 Z"/>
    </g>
</svg>
