<?xml version="1.0" encoding="UTF-8"?>
<!-- Generated by Pixelmator Pro 3.6.5 -->
<svg width="64" height="64" viewBox="0 0 64 64" xmlns="http://www.w3.org/2000/svg">
    <path id="path5796" fill="#000000" stroke="#ffffff" stroke-width="2" stroke-linecap="round" d="M 16.092873 5.501953 L 32.105492 2.456154 L 48.118114 5.501953 L 32.105492 9.154247 L 16.092873 5.501953"/>
    <path id="path5804" fill="#000000" stroke="#ffffff" stroke-width="2" stroke-linecap="round" d="M 59.17358 22.149372 L 51.228909 7.756023 L 52.742161 24.188061 L 61.15686 38.326942 Z"/>
    <path id="path5812" fill="#000000" stroke="#ffffff" stroke-width="2" stroke-linecap="round" d="M 49.445805 6.943932 L 32.956055 10.705051 L 32.956055 29.692741 L 51.003429 23.857803 Z"/>
    <path id="path5822" fill="#000000" stroke="#ffffff" stroke-width="2" stroke-linecap="round" d="M 5.037405 22.149372 L 12.982076 7.756023 L 11.468827 24.188061 L 3.054127 38.326942 Z"/>
    <path id="path5824" fill="#000000" stroke="#ffffff" stroke-width="2" stroke-linecap="round" d="M 13.207558 23.857803 L 14.76518 6.943932 L 31.254932 10.705051 L 31.254932 29.692741 Z"/>
    <path id="path5832" fill="#000000" stroke="#ffffff" stroke-width="2" stroke-linecap="round" d="M 30.726063 31.30957 L 12.682072 25.475723 L 4.023764 40.02393 L 19.504076 46.696281 Z"/>
    <path id="path5838" fill="#000000" stroke="#ffffff" stroke-width="2" stroke-linecap="round" d="M 15.393889 53.94257 L 4.239194 41.969193 L 19.279522 48.4519 L 30.183964 60.802982 Z"/>
    <path id="path5844" fill="#000000" stroke="#ffffff" stroke-width="2" stroke-linecap="round" d="M 33.484921 31.30957 L 51.528915 25.475723 L 60.187222 40.02393 L 44.706909 46.696281 Z"/>
    <path id="path5848" fill="#000000" stroke="#ffffff" stroke-width="2" stroke-linecap="round" d="M 32.105492 60.409149 L 20.880871 47.695412 L 32.105492 32.305088 L 43.330116 47.695412 Z"/>
    <path id="path5850" fill="#000000" stroke="#ffffff" stroke-width="2" stroke-linecap="round" d="M 59.97179 41.969193 L 44.931465 48.4519 L 34.02702 60.802982 L 48.817097 53.94257 Z"/>
</svg>
