<?xml version="1.0" encoding="UTF-8"?>
<!-- Generated by Pixelmator Pro 3.6.5 -->
<svg width="64" height="64" viewBox="0 0 64 64" xmlns="http://www.w3.org/2000/svg">
    <g id="text8041-9-0">
        <path id="path39580" fill="#000000" stroke="none" d="M 6.145379 3 C 4.383976 3 3.00002 4.380997 3.00002 6.138592 L 3.00002 57.611298 C 3.00002 59.368931 4.383976 60.748913 6.145379 61.000004 L 57.729321 61.000004 C 59.616539 61.000004 61 59.493969 61 57.736374 L 61 6.263664 C 61 4.380489 59.490723 3 57.729321 3 Z M 8.315188 16.944633 L 22.89443 16.944633 L 22.89443 19.180878 L 21.120247 19.180878 C 20.500433 19.180878 19.977541 19.335094 19.554937 19.644321 C 19.160496 19.953552 18.962725 20.713409 18.962725 21.922237 L 18.962725 42.077805 C 18.962725 43.286629 19.160496 44.046486 19.554937 44.355717 C 19.977531 44.664948 20.500433 44.81916 21.120247 44.81916 L 22.89443 44.81916 L 22.89443 47.055408 L 8.315188 47.055408 L 8.315188 44.81916 L 10.089368 44.81916 C 10.709181 44.81916 11.216021 44.664948 11.610443 44.355717 C 12.033038 44.046452 12.244432 43.286629 12.244432 42.077805 L 12.244432 21.922237 C 12.244432 20.713409 12.033062 19.953552 11.610443 19.644321 C 11.216002 19.335094 10.709181 19.180878 10.089368 19.180878 L 8.315188 19.180878 Z M 24.710386 16.944633 L 39.289627 16.944633 L 39.289627 19.180878 L 37.51545 19.180878 C 36.895641 19.180878 36.375198 19.335094 35.952595 19.644321 C 35.558147 19.953552 35.360382 20.713409 35.360382 21.922237 L 35.360382 42.077805 C 35.360382 43.286629 35.558147 44.046486 35.952595 44.355717 C 36.375187 44.664948 36.895641 44.81916 37.51545 44.81916 L 39.289627 44.81916 L 39.289627 47.055408 L 24.710386 47.055408 L 24.710386 44.81916 L 26.48702 44.81916 C 27.106831 44.81916 27.613672 44.664948 28.008097 44.355717 C 28.430693 44.046452 28.642086 43.286629 28.642086 42.077805 L 28.642086 21.922237 C 28.642086 20.713409 28.430717 19.953552 28.008097 19.644321 C 27.613651 19.335094 27.106831 19.180878 26.48702 19.180878 L 24.710386 19.180878 Z M 41.10804 16.944633 L 55.687286 16.944633 L 55.687286 19.180878 L 53.913105 19.180878 C 53.293301 19.180878 52.770397 19.335094 52.347801 19.644321 C 51.953358 19.953552 51.758045 20.713409 51.758045 21.922237 L 51.758045 42.077805 C 51.758045 43.286629 51.953388 44.046486 52.347801 44.355717 C 52.770393 44.664948 53.293301 44.81916 53.913105 44.81916 L 55.687286 44.81916 L 55.687286 47.055408 L 41.10804 47.055408 L 41.10804 44.81916 L 42.882221 44.81916 C 43.502037 44.81916 44.008881 44.664948 44.403305 44.355717 C 44.825897 44.046452 45.037285 43.286629 45.037285 42.077805 L 45.037285 21.922237 C 45.037285 20.713409 44.82592 19.953552 44.403305 19.644321 C 44.008854 19.335094 43.502037 19.180878 42.882221 19.180878 L 41.10804 19.180878 Z"/>
    </g>
</svg>
