<?xml version="1.0" encoding="UTF-8" standalone="no"?>
<!-- Generator: Adobe Illustrator 24.0.3, SVG Export Plug-In . SVG Version: 6.00 Build 0)  -->

<svg
   xmlns:dc="http://purl.org/dc/elements/1.1/"
   xmlns:cc="http://creativecommons.org/ns#"
   xmlns:rdf="http://www.w3.org/1999/02/22-rdf-syntax-ns#"
   xmlns:svg="http://www.w3.org/2000/svg"
   xmlns="http://www.w3.org/2000/svg"
   xmlns:sodipodi="http://sodipodi.sourceforge.net/DTD/sodipodi-0.dtd"
   xmlns:inkscape="http://www.inkscape.org/namespaces/inkscape"
   version="1.1"
   id="Layer_1"
   x="0px"
   y="0px"
   viewBox="0 0 64 64"
   style="enable-background:new 0 0 64 64;"
   xml:space="preserve"
   sodipodi:docname="d3black.svg"
   inkscape:version="0.92.4 (5da689c313, 2019-01-14)"><metadata
   id="metadata869"><rdf:RDF><cc:Work
       rdf:about=""><dc:format>image/svg+xml</dc:format><dc:type
         rdf:resource="http://purl.org/dc/dcmitype/StillImage" /></cc:Work></rdf:RDF></metadata><defs
   id="defs44236" /><sodipodi:namedview
   id="namedview44234"
   pagecolor="#ffffff"
   bordercolor="#666666"
   borderopacity="1.0"
   inkscape:pageshadow="2"
   inkscape:pageopacity="0.0"
   inkscape:pagecheckerboard="0"
   showgrid="false"
   inkscape:zoom="8.6178639"
   inkscape:cx="4.7549229"
   inkscape:cy="27.71867"
   inkscape:window-width="1920"
   inkscape:window-height="1017"
   inkscape:window-x="-8"
   inkscape:window-y="-8"
   inkscape:window-maximized="1"
   inkscape:current-layer="text8041-9-0" />
<g
   aria-label="I"
   id="text8041-9-0"
   style="font-size:10.58329964px;line-height:1.25;font-family:'Samyak Tamil';-inkscape-font-specification:'Samyak Tamil';stroke-width:0.37078401"
   transform="matrix(3.7795603,0,0,3.7714103,-15.409119,-285.41643)"><path
     id="path39580"
     style="font-weight:bold;font-family:'Noto Serif';-inkscape-font-specification:'Noto Serif Bold';fill:#000000;fill-opacity:1;stroke-width:0.37078401"
     d="m 7.1064188,78.052082 c -0.3704167,0 -0.6614577,0.291042 -0.6614577,0.661459 v 10.847916 c 0,0.370417 0.291041,0.66125 0.6614577,0.714169 H 17.954334 c 0.396875,0 0.687813,-0.317397 0.687813,-0.687814 V 78.739896 c 0,-0.396875 -0.317397,-0.687814 -0.687813,-0.687814 z m 0.4563027,2.938839 h 3.0659615 v 0.471289 h -0.373104 c -0.130344,0 -0.240307,0.0325 -0.3291787,0.09767 -0.08295,0.06517 -0.12454,0.225311 -0.12454,0.480076 v 4.2478 c 0,0.254765 0.04159,0.414904 0.12454,0.480076 0.08887,0.06517 0.1988347,0.09767 0.3291787,0.09767 h 0.373104 v 0.471289 H 7.5627215 v -0.471289 h 0.3731037 c 0.130345,0 0.236931,-0.0325 0.319877,-0.09767 0.08887,-0.06518 0.133325,-0.225314 0.133325,-0.480076 v -4.2478 c 0,-0.254765 -0.04445,-0.414904 -0.133325,-0.480076 -0.08295,-0.06517 -0.189532,-0.09767 -0.319877,-0.09767 H 7.5627215 Z m 3.4478505,0 h 3.065962 v 0.471289 h -0.373103 c -0.130344,0 -0.239791,0.0325 -0.328663,0.09767 -0.08295,0.06517 -0.12454,0.225311 -0.12454,0.480076 v 4.2478 c 0,0.254765 0.04159,0.414904 0.12454,0.480076 0.08887,0.06517 0.198319,0.09767 0.328663,0.09767 h 0.373103 v 0.471289 h -3.065962 v -0.471289 h 0.37362 c 0.130344,0 0.236931,-0.0325 0.319877,-0.09767 0.08887,-0.06518 0.133326,-0.225314 0.133326,-0.480076 v -4.2478 c 0,-0.254765 -0.04445,-0.414904 -0.133326,-0.480076 -0.08295,-0.06517 -0.189533,-0.09767 -0.319877,-0.09767 h -0.37362 z m 3.448368,0 h 3.065963 v 0.471289 h -0.373104 c -0.130344,0 -0.240308,0.0325 -0.329179,0.09767 -0.08295,0.06517 -0.124023,0.225311 -0.124023,0.480076 v 4.2478 c 0,0.254765 0.04108,0.414904 0.124023,0.480076 0.08887,0.06517 0.198835,0.09767 0.329179,0.09767 h 0.373104 v 0.471289 H 14.45894 v -0.471289 h 0.373104 c 0.130345,0 0.236931,-0.0325 0.319877,-0.09767 0.08887,-0.06518 0.133325,-0.225314 0.133325,-0.480076 v -4.2478 c 0,-0.254765 -0.04445,-0.414904 -0.133325,-0.480076 -0.08295,-0.06517 -0.189532,-0.09767 -0.319877,-0.09767 H 14.45894 Z"
     inkscape:connector-curvature="0" /></g>
</svg>